HIERARCHY
ROOT root
{
	OFFSET	0	13.1	24.9
	CHANNELS 6  Xposition Yposition Zposition Xrotation Yrotation Zrotation
	JOINT spine_1
	{
		OFFSET	0	9.99999	0
		CHANNELS 3  Xrotation Yrotation Zrotation
		JOINT spine_2
		{
			OFFSET	0	112	-10
			CHANNELS 3  Xrotation Yrotation Zrotation
			JOINT spine_3
			{
				OFFSET	0	206.5	19.3
				CHANNELS 3  Xrotation Yrotation Zrotation
				JOINT spine_4
				{
					OFFSET	0	110.4	14.6
					CHANNELS 3  Xrotation Yrotation Zrotation
					JOINT neck_1
					{
						OFFSET	0	71.8	-50.3
						CHANNELS 3  Xrotation Yrotation Zrotation
						JOINT neck_2
						{
							OFFSET	0	86.2	-25.8
							CHANNELS 3  Xrotation Yrotation Zrotation
							JOINT head_ee
							{
								OFFSET	0	179.8	-8.7
								CHANNELS 3  Xrotation Yrotation Zrotation
								End Site
								{
									OFFSET	1	0	0
								}
							}
						}
					}
					JOINT left_clavicle
					{
						OFFSET	-43.2	22.4	-70.8
						CHANNELS 3  Xrotation Yrotation Zrotation
						JOINT left_shoulder
						{
							OFFSET	-93.9	-5.79999	48.7
							CHANNELS 3  Xrotation Yrotation Zrotation
							JOINT left_elbow
							{
								OFFSET	-291.4	-30.8	15.2
								CHANNELS 3  Xrotation Yrotation Zrotation
								JOINT left_lowarm_twist
								{
									OFFSET	-110.7	-3.89999	13.6
									CHANNELS 3  Xrotation Yrotation Zrotation
									JOINT left_hand
									{
										OFFSET	-110.7	-3.89999	13.6
										CHANNELS 3  Xrotation Yrotation Zrotation
										JOINT left_ee
										{
											OFFSET	-80.8	-5.10001	12.1
											CHANNELS 3  Xrotation Yrotation Zrotation
											End Site
											{
												OFFSET	1	0	0
											}
										}
									}
								}
							}
						}
					}
					JOINT right_clavicle
					{
						OFFSET	43.2	22.4	-70.8
						CHANNELS 3  Xrotation Yrotation Zrotation
						JOINT right_shoulder
						{
							OFFSET	93.9	-5.79999	48.7
							CHANNELS 3  Xrotation Yrotation Zrotation
							JOINT right_elbow
							{
								OFFSET	291.4	-30.8	15.2
								CHANNELS 3  Xrotation Yrotation Zrotation
								JOINT right_lowarm_twist
								{
									OFFSET	110.7	-3.89999	13.6
									CHANNELS 3  Xrotation Yrotation Zrotation
									JOINT right_hand
									{
										OFFSET	110.7	-3.89999	13.6
										CHANNELS 3  Xrotation Yrotation Zrotation
										JOINT right_ee
										{
											OFFSET	80.8	-5.10001	12.1
											CHANNELS 3  Xrotation Yrotation Zrotation
											End Site
											{
												OFFSET	1	0	0
											}
										}
									}
								}
							}
						}
					}
				}
			}
		}
	}
	JOINT left_hip
	{
		OFFSET	-82.8	-127.5	0.300001
		CHANNELS 3  Xrotation Yrotation Zrotation
		JOINT left_knee
		{
			OFFSET	-28.2	-396.7	2.2
			CHANNELS 3  Xrotation Yrotation Zrotation
			JOINT left_ankle
			{
				OFFSET	-11.7	-411.3	35.4
				CHANNELS 3  Xrotation Yrotation Zrotation
				JOINT left_toes
				{
					OFFSET	0	-60	-88.6
					CHANNELS 3  Xrotation Yrotation Zrotation
					JOINT left_foot_ee
					{
						OFFSET	-22.5	-16.5	-42.2
						CHANNELS 3  Xrotation Yrotation Zrotation
						End Site
						{
							OFFSET	1	0	0
						}
					}
				}
			}
		}
	}
	JOINT right_hip
	{
		OFFSET	82.8	-127.5	0.300001
		CHANNELS 3  Xrotation Yrotation Zrotation
		JOINT right_knee
		{
			OFFSET	28.2	-396.7	2.2
			CHANNELS 3  Xrotation Yrotation Zrotation
			JOINT right_ankle
			{
				OFFSET	11.7	-411.3	35.4
				CHANNELS 3  Xrotation Yrotation Zrotation
				JOINT right_toes
				{
					OFFSET	0	-60	-88.6
					CHANNELS 3  Xrotation Yrotation Zrotation
					JOINT right_foot_ee
					{
						OFFSET	22.5	-16.5	-42.2
						CHANNELS 3  Xrotation Yrotation Zrotation
						End Site
						{
							OFFSET	1	0	0
						}
					}
				}
			}
		}
	}
}
MOTION
Frames: 15
Frame Time: 0.02
396.694 670.204 -1404.9 136.193 -81.4089 134.897 -5.0193 -0.256092 0.325293 -5.01928 -0.276273 0.308338 -5.02086 -0.354925 0.213136 -5.02078 -0.31681 0.266515 8.04564 -5.21482 -1.22286 8.11874 -7.60428 -1.56307 -0.0 0.0 -0.0 7.81408 -9.67233 15.1269 76.9379 67.8126 30.2407 0.201659 -5.70482 0.0100476 50.6667 -1.01695 -6.18384 -2.26269 28.6843 -1.01903 -0.0 0.0 -0.0 8.17733 27.9992 -14.5999 -3.55897 3.83986 -62.384 0.403771 11.311 -0.0399853 60.3719 1.80715 7.14213 -1.3927 6.15075 12.0927 0.0 0.0 0.0 -16.8912 -8.35978 0.909447 -13.437 0.316086 2.03315 29.1317 -2.83976 -3.8423 5.97182 -0.0 -0.0 -0.0 0.0 -0.0 20.8564 -1.24115 8.16098 -10.34 -0.285706 -1.55899 -11.6165 -5.67215 -1.73779 22.4001 -0.0 -0.0 0.0 0.0 0.0 
408.872 671.106 -1391.43 131.31 -81.9461 129.859 -5.13205 -0.410412 0.488379 -5.13203 -0.440656 0.461274 -5.13582 -0.55773 0.309658 -5.1356 -0.501826 0.393856 8.60217 -4.94933 -1.84437 8.65548 -6.54826 -2.29057 -0.0 0.0 -0.0 7.78916 -9.66321 15.0741 81.1857 67.3464 24.4642 0.199974 -5.65747 0.00988088 49.1614 -0.909432 -6.02387 -2.43818 28.7356 -1.93635 -0.0 0.0 -0.0 9.23479 28.0304 -16.9335 1.02092 1.60901 -61.084 0.206513 5.84122 -0.010536 58.6909 1.65878 6.98586 -1.00159 6.57296 9.59122 0.0 0.0 0.0 -17.5636 -10.0498 -0.379748 -14.3285 0.320076 2.16987 31.0683 -3.17566 -4.05297 4.20305 -0.0 -0.0 -0.0 0.0 -0.0 20.4806 -1.89407 7.73408 -11.7144 -0.302352 -1.76921 -10.3215 -10.2401 -1.53998 22.4794 -0.0 -0.0 0.0 0.0 0.0 
421.889 672.08 -1386.32 131.557 -81.858 129.861 -5.32948 -0.282053 0.421347 -5.32943 -0.308292 0.402546 -5.33169 -0.414895 0.291461 -5.33163 -0.363658 0.353328 9.24931 -5.22627 -1.22187 9.32463 -7.51468 -1.53401 -0.0 0.0 -0.0 7.95119 -8.15958 15.4591 79.4634 67.2451 25.2472 0.1996 -5.64696 0.00984411 48.2089 -0.843587 -5.92122 -2.46138 28.8907 -1.98122 -0.0 0.0 -0.0 8.74062 26.8814 -15.9672 0.925786 2.11922 -61.2317 0.244162 6.89663 -0.0147125 60.8637 1.85143 7.18703 -1.18292 3.87134 9.64516 0.0 0.0 0.0 -17.742 -9.24892 0.0597291 -14.1868 0.319584 2.14814 33.0348 -0.573412 -4.22966 5.00436 -0.0 -0.0 -0.0 0.0 -0.0 19.5168 -1.31117 7.84837 -11.3434 -0.298356 -1.71244 -11.6079 -11.2421 -1.73574 22.0975 -0.0 -0.0 0.0 0.0 0.0 
443.146 674.68 -1378.6 123.464 -83.939 120.52 -5.42958 -0.325193 0.34298 -5.42958 -0.346359 0.321592 -5.43169 -0.427263 0.202069 -5.43153 -0.389987 0.267012 11.2841 -5.18007 -0.502401 11.3831 -7.91903 -0.603725 -0.0 0.0 -0.0 8.12663 -5.59545 15.8689 74.6914 66.7973 28.5098 0.199584 -5.64651 0.00984253 46.2018 -0.710509 -5.70149 -2.1964 28.7918 -0.609401 -0.0 0.0 -0.0 7.24743 27.0223 -12.6629 -1.20663 2.4405 -63.2519 0.405089 11.347 -0.0402442 61.9511 1.95068 7.28495 -0.729292 4.49171 6.83042 0.0 0.0 0.0 -17.8806 -10.4595 0.0572873 -12.9849 0.31325 1.96384 33.3474 -1.02705 -4.26491 5.85563 -0.0 -0.0 -0.0 0.0 -0.0 20.6884 -4.4968 9.96535 -13.3546 -0.31561 -2.02051 -9.75631 -12.3133 -1.45695 24.0747 -0.0 -0.0 0.0 0.0 0.0 
457.339 675.039 -1376.89 150.361 -81.5498 146.997 -5.05201 -0.0945491 0.533936 -5.05186 -0.128333 0.526838 -5.05288 -0.278274 0.465395 -5.05313 -0.201282 0.503501 12.7133 -5.25258 -0.513854 12.8172 -7.89843 -0.582673 -0.0 0.0 -0.0 9.46699 -6.12033 18.6968 82.9201 64.1888 16.3682 0.198118 -5.6053 0.00969874 44.0423 -0.576042 -5.46007 -2.82668 28.9405 -3.91599 -0.0 0.0 -0.0 8.31519 26.2109 -15.0983 2.85994 -0.710063 -60.8155 0.421065 11.7822 -0.043447 59.7711 1.7536 7.08678 -0.181786 4.27241 3.03448 0.0 0.0 0.0 -16.402 -7.42884 0.750614 -17.0381 0.319141 2.58556 35.4554 -1.85265 -4.47919 6.34207 -0.0 -0.0 -0.0 0.0 -0.0 21.2357 0.410591 8.94924 -13.3073 -0.315328 -2.01326 -11.8088 -13.5219 -1.77072 22.7117 -0.0 -0.0 0.0 0.0 0.0 
485.325 679.964 -1368.67 151.209 -79.342 146.403 -5.20233 0.240474 0.953959 -5.20184 0.179286 0.967326 -5.19775 -0.117004 0.976817 -5.19908 0.038727 0.983036 14.666 -4.12755 0.611931 14.7724 -7.02693 0.887426 -0.0 0.0 -0.0 9.76899 -5.84544 19.3396 76.9833 62.9942 15.9008 0.326679 -9.19251 0.0262625 40.3055 -0.365248 -5.03111 -3.24236 28.1316 -6.62013 -0.0 0.0 -0.0 8.73501 27.2331 -15.9163 4.65296 -2.75268 -59.9521 0.471221 13.1394 -0.0542701 61.4519 1.90488 7.24023 0.208895 2.15496 -0.491217 0.0 0.0 0.0 -14.3406 -6.35841 2.75349 -21.3463 0.277209 3.24512 34.9751 0.049933 -4.41638 6.6568 -0.0 -0.0 -0.0 0.0 -0.0 17.885 2.65497 9.75192 -13.8341 -0.318126 -2.09404 -9.44169 -14.4227 -1.41362 23.2098 -0.0 -0.0 0.0 0.0 0.0 
503.976 677.707 -1365.23 150.263 -78.7946 144.616 -5.10943 0.12202 1.03373 -5.10884 0.0559969 1.0394 -5.10675 -0.254585 1.0093 -5.10816 -0.0919992 1.03684 11.7446 -3.73893 2.02273 11.8942 -7.90051 2.55212 -0.0 0.0 -0.0 8.07592 2.434 15.6813 55.5665 60.6238 35.6466 0.308788 -8.69699 0.0234808 35.996 -0.157548 -4.52082 -3.28392 27.13 -7.4265 -0.0 0.0 -0.0 7.47237 28.323 -13.0139 4.41072 2.85291 -60.7932 0.572643 15.8372 -0.0796512 64.8898 2.22806 7.54002 0.359404 -0.970888 -2.80348 0.0 0.0 0.0 -14.7127 -5.19499 3.71974 -25.1214 0.199807 3.81914 35.3262 -0.587705 -4.45521 8.72048 -0.0 -0.0 -0.0 0.0 -0.0 17.2725 -1.63717 11.4672 -12.9047 -0.31269 -1.95155 -6.49727 -12.8907 -0.966172 23.5602 -0.0 -0.0 0.0 0.0 0.0 
530.088 680.164 -1355.81 150.591 -77.3326 144.857 -5.01843 0.169692 0.971431 -5.01791 0.107536 0.980259 -5.01507 -0.186273 0.968388 -5.01638 -0.0310038 0.985651 11.6075 -3.29417 3.19324 11.8023 -8.2743 4.0039 -0.0 0.0 -0.0 7.44409 8.77625 14.2373 45.7238 56.8425 41.8147 0.248316 -7.01281 0.0152156 34.0178 -0.0752033 -4.28173 -3.10977 25.5149 -7.37357 -0.0 0.0 -0.0 7.21592 28.2904 -12.4553 2.71851 6.27418 -60.9635 0.694838 18.9936 -0.116238 69.4889 2.6875 7.90995 0.337039 -0.702698 -2.54317 0.0 0.0 0.0 -15.0561 -4.06606 3.74221 -29.5387 0.0614597 4.48278 36.0673 0.451804 -4.51792 11.777 -0.0 -0.0 -0.0 0.0 -0.0 16.6629 -4.15743 11.8024 -15.2938 -0.321997 -2.31797 -2.08592 -12.1875 -0.307343 23.7053 -0.0 -0.0 0.0 0.0 0.0 
548.909 683.249 -1350.41 152.338 -76.2573 146.092 -4.97437 0.342183 1.00159 -4.97386 0.277759 1.02134 -4.96768 -0.0348276 1.05785 -4.96922 0.132668 1.05008 10.625 -2.6123 3.51874 10.7964 -7.49551 4.33019 -0.0 0.0 -0.0 6.39847 12.053 12.2426 38.5508 56.1611 46.7451 0.26621 -7.51258 0.0174777 29.0816 0.0938249 -3.67416 -2.53259 22.8001 -5.54115 -0.0 0.0 -0.0 6.79148 28.8159 -11.4676 6.74596 1.93289 -61.0541 0.677561 18.5541 -0.110677 67.5803 2.49323 7.76089 0.637303 -2.09787 -5.11866 0.0 0.0 0.0 -10.2237 -4.46488 5.70687 -37.6504 -0.324094 5.66653 35.7189 3.5859 -4.47014 13.2449 -0.0 -0.0 -0.0 0.0 -0.0 14.8322 -3.73009 12.0584 -14.6965 -0.321103 -2.22632 -4.0056 -10.43 -0.591614 25.6624 -0.0 -0.0 0.0 0.0 0.0 
572.596 683.18 -1342.06 148.921 -75.8587 142.436 -4.9116 0.314207 1.16431 -4.91088 0.239487 1.18195 -4.90439 -0.11732 1.20024 -4.90639 0.0736935 1.20371 9.50464 -2.37873 4.33321 9.70586 -7.87213 5.23876 -0.0 0.0 -0.0 5.89701 15.4253 11.2765 35.242 53.5878 47.7261 0.226017 -6.38851 0.0126136 27.8681 0.12731 -3.52277 -2.10499 22.1091 -3.40796 -0.0 0.0 -0.0 6.3804 29.2264 -10.5237 8.13272 4.76244 -60.2373 0.695427 19.0086 -0.11643 70.0897 2.74968 7.95553 0.77949 -1.9449 -6.00533 0.0 0.0 0.0 -7.7181 -4.35282 7.05216 -41.4855 -0.563969 6.20497 33.1362 3.80104 -4.21645 14.1741 -0.0 -0.0 -0.0 0.0 -0.0 13.9029 -6.54209 13.4075 -17.2079 -0.318428 -2.6116 -1.04105 -10.8141 -0.152847 27.4486 -0.0 -0.0 0.0 0.0 0.0 
594.337 683.84 -1327.46 143.425 -75.2177 138.511 -4.86165 0.180234 1.03634 -4.86106 0.113928 1.04571 -4.85787 -0.196629 1.03335 -4.85936 -0.0309722 1.05144 8.39624 -2.62905 3.06248 8.52856 -7.14373 3.61368 -0.0 0.0 -0.0 5.17042 18.5573 10.022 32.8163 51.5807 48.8363 0.209256 -5.91823 0.0108169 25.4922 0.183546 -3.22449 -1.19535 17.8755 0.00833647 -0.0 0.0 -0.0 6.92238 28.8828 -11.7462 9.50297 4.40539 -59.7186 0.709141 19.3558 -0.120936 71.2166 2.86757 8.03926 0.548319 -1.7839 -4.39746 0.0 0.0 0.0 -5.05591 -10.1008 8.45483 -45.6316 -0.86335 6.76796 31.7104 8.32766 -4.07163 13.7193 -0.0 -0.0 -0.0 0.0 -0.0 11.0192 -9.37608 11.8461 -18.1166 -0.3133 -2.75094 1.59136 -8.37068 0.231972 27.2225 -0.0 -0.0 0.0 0.0 0.0 
616.382 685.704 -1312.54 140.416 -74.7782 136.8 -4.83282 0.22699 0.946813 -4.83234 0.166285 0.959337 -4.82856 -0.120814 0.966116 -4.82987 0.0332749 0.973071 6.8059 -2.75601 2.59906 6.91247 -6.96727 2.95503 -0.0 0.0 -0.0 4.2016 21.038 8.5234 30.4199 49.0947 50.8416 0.198217 -5.60808 0.00970845 25.9791 0.17303 -3.2858 -0.0943392 13.3035 4.87518 -0.0 0.0 -0.0 6.72379 28.8272 -11.3184 10.509 6.3691 -59.4467 0.738681 20.0986 -0.130907 72.6939 3.02459 8.14549 0.325295 -2.96896 -3.40064 0.0 0.0 0.0 -2.59765 -13.7118 8.79227 -49.8865 -1.2123 7.32208 33.0307 9.35946 -4.21135 10.785 -0.0 -0.0 -0.0 0.0 -0.0 8.23553 -13.2348 10.524 -18.1485 -0.31308 -2.75582 5.17639 -4.92591 0.748395 27.4474 -0.0 -0.0 0.0 0.0 0.0 
641.358 688.706 -1303.01 144.12 -73.994 140.536 -4.56639 0.581377 1.03705 -4.56594 0.514213 1.07193 -4.55492 0.18481 1.17443 -4.55666 0.367958 1.13051 7.92498 -3.08039 1.78744 8.01607 -6.7575 2.05432 -0.0 0.0 -0.0 3.39499 24.531 7.38747 29.0843 48.8309 52.3789 0.195713 -5.53769 0.00946534 24.362 0.205943 -3.08185 1.19363 2.71976 9.0886 -0.0 0.0 -0.0 6.30356 29.5116 -10.3238 13.2609 -1.86545 -62.0943 0.7803 21.1333 -0.145562 72.7511 3.03072 8.14953 1.15045 4.03855 -6.04606 0.0 0.0 0.0 0.143131 -13.6745 9.692 -53.8554 -1.57426 7.81467 31.2526 10.9752 -4.0356 12.0123 -0.0 -0.0 -0.0 0.0 -0.0 6.10905 -10.377 9.01248 -18.8496 -0.307554 -2.86325 4.48143 -9.38911 0.648318 30.3314 -0.0 -0.0 0.0 0.0 0.0 
654.902 687.796 -1293.56 141.147 -75.3498 137.82 -4.33251 0.49809 1.08437 -4.33195 0.428083 1.11386 -4.32222 0.0950824 1.18949 -4.32409 0.281734 1.15955 7.50014 -3.16007 1.44645 7.57961 -6.59895 1.62614 -0.0 0.0 -0.0 3.01843 24.8237 6.88404 28.8953 47.7501 51.74 0.19666 -5.5643 0.0095568 24.7164 0.199222 -3.12663 1.92345 -3.33588 11.6043 -0.0 0.0 -0.0 6.15519 28.9585 -10.0626 13.446 -2.17731 -62.333 0.833051 22.4242 -0.165135 73.7216 3.13541 8.217 1.45698 6.67247 -7.01936 0.0 0.0 0.0 2.91992 -16.936 9.19666 -56.6688 -1.85121 8.14831 31.2029 11.8079 -4.03584 10.8499 -0.0 -0.0 -0.0 0.0 -0.0 4.93635 -11.9025 8.36921 -19.4098 -0.302194 -2.94903 6.6518 -6.06644 0.956507 30.8814 -0.0 -0.0 0.0 0.0 0.0 
669.396 687.325 -1286.96 139.326 -77.1155 135.767 -3.94465 0.41758 1.15716 -3.94397 0.343106 1.18138 -3.93547 0.00274664 1.23019 -3.93753 0.196982 1.21432 6.09837 -3.19832 1.06931 6.16164 -6.37857 1.11591 -0.0 0.0 -0.0 2.53227 24.8243 6.23306 28.4935 47.0221 51.52 0.19442 -5.50131 0.00934089 25.1599 0.190422 -3.1826 2.35401 -6.35209 13.3074 -0.0 0.0 -0.0 5.27582 29.3084 -8.10932 14.2101 -1.87856 -61.7298 0.852971 22.9056 -0.172811 74.6507 3.23669 8.27994 1.65151 7.75132 -7.88406 0.0 0.0 0.0 6.09039 -18.6047 9.6186 -57.2617 -1.91167 8.2169 31.0172 12.1713 -4.01878 9.78234 -0.0 -0.0 -0.0 0.0 -0.0 3.73101 -12.8088 8.06365 -18.6538 -0.30923 -2.83326 8.71209 -2.97557 1.24849 30.8067 -0.0 -0.0 0.0 0.0 0.0 
